<?xml version="1.0" standalone="no"?>
<!DOCTYPE svg PUBLIC "-//W3C//DTD SVG 20010904//EN"
 "http://www.w3.org/TR/2001/REC-SVG-20010904/DTD/svg10.dtd">
<svg version="1.0" xmlns="http://www.w3.org/2000/svg"
 width="166.000000pt" height="156.000000pt" viewBox="0 0 166.000000 156.000000"
 preserveAspectRatio="xMidYMid meet">
<metadata>
Created by potrace 1.10, written by Peter Selinger 2001-2011
</metadata>
<g transform="translate(0.000000,156.000000) scale(0.100000,-0.100000)"
fill="#000000" stroke="none">
<path d="M521 1353 c-169 -170 -232 -273 -266 -434 -28 -133 -14 -267 46 -435
17 -49 33 -97 36 -106 11 -37 20 -15 26 64 9 107 47 220 106 310 81 125 101
127 101 10 -1 -153 -35 -304 -96 -426 -14 -27 -23 -53 -22 -58 2 -5 32 15 68
43 73 59 160 102 240 117 96 19 200 20 200 1 0 -12 -41 -53 -105 -104 -79 -63
-148 -93 -375 -163 -23 -7 35 -28 130 -48 129 -26 290 -16 398 24 183 68 313
196 426 417 44 86 82 183 75 190 -2 2 -40 11 -84 20 -124 26 -295 31 -395 11
-92 -19 -200 -63 -200 -81 0 -16 -49 -128 -59 -135 -4 -3 -17 -21 -28 -40 -32
-52 -80 -93 -151 -128 -79 -40 -85 -29 -37 66 44 87 142 184 259 257 39 24 46
251 11 379 -29 110 -154 366 -178 366 -5 0 -62 -53 -126 -117z m181 -34 c26
-52 62 -139 80 -194 29 -91 32 -111 31 -226 0 -70 -4 -133 -9 -140 -5 -8 -9
-17 -9 -21 0 -5 -22 -24 -50 -43 -27 -20 -69 -54 -92 -75 -22 -22 -45 -40 -50
-40 -4 0 -7 58 -6 130 2 123 1 130 -20 145 -12 8 -28 15 -36 15 -41 0 -146
-161 -186 -284 -26 -80 -31 -85 -44 -40 -39 137 -49 273 -26 364 42 170 85
242 233 398 28 31 52 53 52 49 0 -4 14 8 31 28 18 20 37 34 43 32 6 -2 32 -46
58 -98z m610 -560 c135 -15 152 -21 145 -57 -3 -15 -23 -63 -44 -107 -150
-315 -381 -469 -680 -452 -56 3 -111 10 -120 16 -10 6 -16 11 -13 11 21 1 176
74 225 105 74 48 157 124 149 137 -4 6 -2 13 4 17 6 4 3 15 -10 31 -19 24 -25
25 -107 23 -47 -2 -96 -5 -108 -7 -31 -6 -29 3 9 55 42 57 58 87 58 110 0 11
5 19 11 19 5 0 8 4 4 9 -7 12 33 41 56 41 9 0 30 7 48 16 38 19 156 42 223 43
26 1 94 -4 150 -10z"/>
</g>
</svg>
